# xmcd
#
# Track frame offsets: 
#        183
#        11713
#        26348
#        39660
#        57168
#        70280
#        83480
#        94433
#        105768
#        117230
#        128933
#        144385
#        160285
#        173650
#        183228
#        195983
#        209163
#        223175
#        235285
#        251700
#
# Disc length: 3510 seconds
#
# Revision: 3
# Processed by: cddbd v1.5.2PL0 Copyright (c) Steve Scherf et al.
# Submitted via: ExactAudioCopy v1.3
#
DISCID=180db414
DTITLE=Crystal Gayle - 20 Love Songs
DYEAR=1900
DGENRE=
TTITLE0=Hello I Love You
TTITLE1=Cry Me A River
TTITLE2=Dreaming My Dreams With You
TTITLE3=Someday Soon
TTITLE4=I'll Do It All Over Again
TTITLE5=I Wanna Come Back To You
TTITLE6=Somebody Loves You
TTITLE7=It's All Right With Me
TTITLE8=Coming Closer
TTITLE9=Don't It Make My Brown Eyes Blue
TTITLE10=When I Dream
TTITLE11=I'll Get Over You
TTITLE12=Heart Mender
TTITLE13=Funny
TTITLE14=I Still Miss Someone
TTITLE15=Talking In Your Sleep
TTITLE16=Right In The Palm Of Your Hand
TTITLE17=Beyond You
TTITLE18=Going Down Slow
TTITLE19=A Woman's Heart (Is A Handy Place To Be)
EXTD=
EXTT0=
EXTT1=
EXTT2=
EXTT3=
EXTT4=
EXTT5=
EXTT6=
EXTT7=
EXTT8=
EXTT9=
EXTT10=
EXTT11=
EXTT12=
EXTT13=
EXTT14=
EXTT15=
EXTT16=
EXTT17=
EXTT18=
EXTT19=
PLAYORDER=
